<?xml version="1.0" encoding="utf-8"?>
<!-- Generator: Adobe Illustrator 24.1.0, SVG Export Plug-In . SVG Version: 6.00 Build 0)  -->
<svg version="1.1" id="Layer_1" xmlns="http://www.w3.org/2000/svg" xmlns:xlink="http://www.w3.org/1999/xlink" x="0px" y="0px"
	 viewBox="0 0 44.5 44.5" style="enable-background:new 0 0 44.5 44.5;" xml:space="preserve">
<style type="text/css">
	.st0{fill-rule:evenodd;clip-rule:evenodd;fill:#FFFFFF;}
	.st1{fill-rule:evenodd;clip-rule:evenodd;fill:#474747;}
</style>
<path class="st0" d="M15.7,2.8c4.3-1,8.7-1,13,0c6.2,1.5,11,6.3,12.5,12.5c1,4.3,1,8.7,0,13c-1.5,6.2-6.3,11-12.5,12.5
	c-4.3,1-8.7,1-13,0c-6.2-1.5-11-6.3-12.5-12.5c-1-4.3-1-8.7,0-13C4.7,9.1,9.5,4.3,15.7,2.8z"/>
<path class="st1" d="M17.9,27.3c-0.6,0.6-0.6,1.6,0,2.2c0.6,0.6,1.6,0.6,2.2,0l6.6-6.6c0.3-0.3,0.5-0.7,0.5-1.1
	c0-0.4-0.2-0.8-0.5-1.1l-6.6-6.6c-0.6-0.6-1.6-0.6-2.2,0c-0.6,0.6-0.6,1.6,0,2.2l5.5,5.5L17.9,27.3z"/>
</svg>
