<svg width="68" height="68" viewBox="0 0 68 68" fill="none" xmlns="http://www.w3.org/2000/svg">
<path fill-rule="evenodd" clip-rule="evenodd" d="M25.5843 9.47381C31.1196 8.1754 36.8804 8.1754 42.4157 9.47381C50.4095 11.3489 56.6511 17.5905 58.5262 25.5843C59.8246 31.1196 59.8246 36.8804 58.5262 42.4157C56.6511 50.4095 50.4095 56.6511 42.4157 58.5262C36.8804 59.8246 31.1196 59.8246 25.5843 58.5262C17.5905 56.6511 11.3489 50.4095 9.47382 42.4157C8.17539 36.8804 8.17539 31.1196 9.47382 25.5843C11.3489 17.5905 17.5905 11.3489 25.5843 9.47381ZM37.863 28.3699C38.4985 27.7343 38.4985 26.7039 37.863 26.0684C37.2274 25.4329 36.197 25.4329 35.5615 26.0684L28.7807 32.8492C28.4755 33.1544 28.3041 33.5683 28.3041 33.9999C28.3041 34.4315 28.4755 34.8455 28.7807 35.1507L35.5615 41.9314C36.197 42.567 37.2274 42.567 37.863 41.9314C38.4985 41.2959 38.4985 40.2655 37.863 39.63L32.2329 33.9999L37.863 28.3699Z" fill="white"/>
</svg>
