<?xml version="1.0" encoding="utf-8"?>
<!-- Generator: Adobe Illustrator 24.1.0, SVG Export Plug-In . SVG Version: 6.00 Build 0)  -->
<svg version="1.1" id="Layer_1" xmlns="http://www.w3.org/2000/svg" xmlns:xlink="http://www.w3.org/1999/xlink" x="0px" y="0px"
	 viewBox="0 0 24 24" style="enable-background:new 0 0 24 24;" xml:space="preserve">
<style type="text/css">
	.st0{fill:#FC0E66;}
</style>
<g>
	<g>
		<path class="st0" d="M17.2,2.4c-2.3,0-4,1.2-5.2,3c-1.2-1.8-2.9-3-5.2-3C5,2.4,3.4,3.1,2.2,4.3C1.1,5.5,0.5,7.1,0.5,8.8
			c0,1.8,0.7,3.5,2.3,5.3c1.4,1.6,3.4,3.2,5.7,5.1c0.9,0.7,1.8,1.4,2.7,2.2c0.2,0.2,0.4,0.2,0.7,0.2s0.5-0.1,0.7-0.2
			c0.9-0.8,1.8-1.5,2.7-2.2c2.3-1.9,4.3-3.5,5.7-5.1c1.6-1.8,2.3-3.5,2.3-5.3C23.5,5.3,20.9,2.4,17.2,2.4L17.2,2.4z"/>
	</g>
</g>
</svg>
