<?xml version="1.0" encoding="utf-8"?>
<!-- Generator: Adobe Illustrator 24.1.0, SVG Export Plug-In . SVG Version: 6.00 Build 0)  -->
<svg version="1.1" id="Layer_1" xmlns="http://www.w3.org/2000/svg" xmlns:xlink="http://www.w3.org/1999/xlink" x="0px" y="0px"
	 viewBox="0 0 453.9 213.3" style="enable-background:new 0 0 453.9 213.3;" xml:space="preserve">
<style type="text/css">
	.st0{fill:#00E9FA;}
</style>
<g>
	<path class="st0" d="M64.7,49.9c-0.6,0.7-1,1.1-1.5,1.5S62,52,61.1,52s-1.6-0.2-2.4-0.7c-0.7-0.4-1.5-0.9-2.4-1.4s-1.9-0.9-3-1.4
		s-2.6-0.7-4.3-0.7c-2.2,0-4,0.4-5.6,1.1c-1.5,0.8-2.8,1.9-3.9,3.4c-1,1.5-1.8,3.2-2.3,5.4s-0.8,4.5-0.8,7.2c0,5.6,1,9.9,3.2,13
		c2.2,3,5.1,4.5,9,4.5c2,0,3.7-0.3,4.8-0.8s2.2-1,3-1.7c0.9-0.7,1.6-1.2,2.3-1.7s1.6-0.8,2.6-0.8c1.4,0,2.5,0.5,3.1,1.5l5.1,6.2
		c-1.8,2.1-3.7,3.8-5.7,5c-2,1.3-4.1,2.3-6.1,3c-2.1,0.8-4.2,1.2-6.3,1.5S47.2,95,45.3,95c-3.6,0-7-0.7-10.2-2.1
		c-3.2-1.3-6.1-3.3-8.6-5.9s-4.4-5.8-5.9-9.5s-2.2-8-2.2-12.9c0-4.3,0.7-8.1,1.9-11.8c1.2-3.7,3.1-6.8,5.6-9.5
		c2.5-2.6,5.5-4.8,9.2-6.3c3.6-1.5,7.8-2.4,12.6-2.4c4.6,0,8.6,0.8,12.1,2.2c3.5,1.5,6.6,3.6,9.4,6.4L64.7,49.9z"/>
	<path class="st0" d="M77.2,94.6V36h10.4c0.9,0,1.6,0.1,2.2,0.2c0.6,0.2,1,0.4,1.5,0.8s0.7,0.8,0.9,1.2c0.2,0.6,0.4,1.1,0.6,1.9
		l0.9,5.5c2.2-3.3,4.5-6,7.2-7.8c2.6-1.9,5.6-2.8,8.7-2.8c2.6,0,4.8,0.7,6.4,1.9l-2.3,12.9c-0.2,0.8-0.5,1.3-0.9,1.7
		c-0.5,0.3-1,0.5-1.8,0.5c-0.7,0-1.4-0.1-2.3-0.3s-2-0.3-3.3-0.3c-4.6,0-8.2,2.5-10.9,7.4v35.9H77.2V94.6z"/>
	<path class="st0" d="M149,35.1c3.9,0,7.5,0.6,10.6,1.8c3.2,1.2,6,2.9,8.3,5.3c2.4,2.4,4.2,5.1,5.4,8.4c1.3,3.3,2,7.1,2,11.3
		c0,1.3-0.1,2.4-0.2,3.2c-0.1,0.9-0.3,1.5-0.7,2s-0.8,0.9-1.2,1c-0.5,0.2-1.1,0.3-2,0.3h-33.8c0.6,4.9,2.1,8.4,4.4,10.6
		s5.5,3.3,9.4,3.3c2,0,3.8-0.3,5.2-0.8s2.7-1,3.9-1.6c1.1-0.6,2.2-1.1,3.1-1.6s2-0.8,3-0.8c1.4,0,2.5,0.5,3.1,1.5l5.1,6.2
		c-1.8,2.1-3.8,3.8-5.9,5c-2.1,1.3-4.3,2.3-6.4,3c-2.2,0.8-4.4,1.2-6.6,1.5c-2.2,0.3-4.3,0.4-6.3,0.4c-4.1,0-7.9-0.7-11.5-2
		s-6.7-3.3-9.5-6c-2.7-2.6-4.8-5.9-6.4-9.8c-1.5-3.9-2.4-8.5-2.4-13.6c0-3.9,0.7-7.7,2-11.2s3.2-6.5,5.8-9.2
		c2.5-2.6,5.6-4.7,9.1-6.2C140.5,35.8,144.4,35.1,149,35.1z M149.3,47.2c-3.3,0-6,0.9-7.8,2.8c-1.9,1.9-3.1,4.6-3.7,8.2h21.8
		c0-1.4-0.2-2.7-0.6-4.1c-0.4-1.3-0.9-2.5-1.8-3.5c-0.9-1-1.9-1.9-3.2-2.6C152.8,47.5,151.2,47.2,149.3,47.2z"/>
	<path class="st0" d="M225.7,94.6c-1.7,0-2.9-0.2-3.8-0.7s-1.5-1.4-2.1-2.8l-1.2-3.2c-1.4,1.2-2.8,2.4-4.3,3.3
		c-1.3,0.9-2.7,1.7-4.3,2.4c-1.4,0.7-3,1.1-4.6,1.5c-1.6,0.3-3.4,0.5-5.5,0.5c-2.6,0-5.1-0.4-7.3-1s-4.1-1.7-5.6-3.1
		c-1.5-1.3-2.7-3-3.5-5.1c-0.9-2-1.2-4.3-1.2-7c0-2.1,0.6-4.2,1.6-6.4c1-2.2,2.8-4.2,5.5-6c2.6-1.8,6.1-3.3,10.5-4.5
		s9.9-1.8,16.6-1.8V58c0-3.5-0.8-6-2.1-7.5c-1.4-1.5-3.4-2.3-6.1-2.3c-2.1,0-3.8,0.2-5.1,0.7s-2.5,0.9-3.5,1.5s-2.1,1-3,1.5
		s-2.2,0.7-3.5,0.7c-1.2,0-2.3-0.3-3-0.9c-0.8-0.6-1.5-1.3-2-2.2l-3.1-5.5c3.5-3.1,7.5-5.5,11.8-7s8.9-2.3,13.9-2.3
		c3.5,0,6.7,0.6,9.5,1.7c2.8,1.1,5.2,2.7,7.2,4.8s3.5,4.5,4.5,7.3s1.6,5.9,1.6,9.3v36.6C233.7,94.6,225.7,94.6,225.7,94.6z
		 M205.6,83.9c2.3,0,4.3-0.4,6-1.1c1.7-0.8,3.4-2.1,5.1-3.9v-8c-3.5,0-6.4,0.2-8.6,0.7c-2.3,0.5-4.1,1-5.4,1.7
		c-1.3,0.7-2.3,1.5-2.7,2.4s-0.8,1.8-0.8,2.8c0,2,0.6,3.4,1.6,4.3C201.9,83.5,203.5,83.9,205.6,83.9z"/>
	<path class="st0" d="M266.7,95.4c-2.8,0-5.2-0.4-7.4-1.2c-2.1-0.9-3.9-2-5.4-3.4s-2.6-3.3-3.3-5.4c-0.8-2.1-1.1-4.4-1.1-7.1V48
		h-4.9c-0.9,0-1.7-0.3-2.4-0.9s-0.9-1.4-0.9-2.6v-6.8l9.4-1.8l3.4-14.3c0.5-1.8,1.7-2.7,3.9-2.7h9.2V36h14.2v12h-14.2v29
		c0,1.3,0.4,2.5,0.9,3.4c0.7,0.9,1.6,1.3,2.8,1.3c0.7,0,1.1-0.1,1.6-0.2s0.9-0.3,1.1-0.5c0.3-0.2,0.7-0.3,0.9-0.5
		c0.3-0.1,0.6-0.2,0.9-0.2c0.6,0,0.9,0.1,1.2,0.4c0.3,0.3,0.7,0.7,0.9,1.1l5.3,8.3c-2.3,1.7-4.8,2.9-7.7,3.8
		C272.7,95,269.7,95.4,266.7,95.4z"/>
	<path class="st0" d="M311.4,20c0,1.4-0.3,2.7-0.9,4c-0.6,1.2-1.3,2.3-2.4,3.2c-0.9,0.9-2.1,1.7-3.4,2.2s-2.6,0.9-4.2,0.9
		c-1.4,0-2.7-0.3-4-0.9c-1.2-0.6-2.4-1.2-3.3-2.2c-0.9-0.9-1.7-2-2.3-3.2s-0.9-2.6-0.9-4s0.3-2.7,0.9-4s1.3-2.4,2.3-3.3
		s2.1-1.7,3.3-2.2c1.2-0.5,2.6-0.8,4-0.8s2.8,0.3,4.2,0.8c1.3,0.6,2.5,1.2,3.4,2.2c0.9,0.9,1.8,2.1,2.4,3.3S311.4,18.5,311.4,20z
		 M309.3,36v58.5h-17.5V36H309.3z"/>
	<path class="st0" d="M355.9,94.6H340L317.3,36h14.6c1.2,0,2.3,0.3,3.1,0.9c0.9,0.6,1.4,1.3,1.7,2.2l8.1,26.3
		c0.7,2.2,1.2,4.3,1.8,6.2c0.6,2.1,1,4.1,1.5,6.1c0.4-2.1,0.9-4.1,1.5-6.1s1.2-4.2,1.9-6.2l8.5-26.3c0.3-0.9,0.9-1.6,1.7-2.2
		c0.9-0.6,1.8-0.9,2.9-0.9h13.9L355.9,94.6z"/>
	<path class="st0" d="M408.7,35.1c3.9,0,7.4,0.6,10.6,1.8s6,2.9,8.3,5.3c2.4,2.4,4.2,5.1,5.4,8.4c1.2,3.3,2,7.1,2,11.3
		c0,1.3-0.1,2.4-0.2,3.2c-0.1,0.9-0.3,1.5-0.7,2c-0.3,0.5-0.8,0.9-1.2,1c-0.5,0.2-1.1,0.3-2,0.3h-33.8c0.6,4.9,2.1,8.4,4.4,10.6
		c2.4,2.2,5.5,3.3,9.3,3.3c2.1,0,3.8-0.3,5.2-0.8c1.4-0.5,2.7-1,4-1.6c1.1-0.6,2.2-1.1,3.1-1.6s2-0.8,3-0.8c1.4,0,2.5,0.5,3.1,1.5
		l5.1,6.2c-1.8,2.1-3.8,3.8-5.9,5c-2.1,1.3-4.3,2.3-6.4,3c-2.2,0.8-4.4,1.2-6.6,1.5s-4.3,0.4-6.3,0.4c-4.1,0-7.9-0.7-11.5-2
		s-6.7-3.3-9.5-6c-2.6-2.6-4.8-5.9-6.4-9.8s-2.4-8.5-2.4-13.6c0-3.9,0.7-7.7,2-11.2s3.2-6.5,5.8-9.2c2.6-2.6,5.5-4.7,9.1-6.2
		C400.2,35.8,404.2,35.1,408.7,35.1z M409,47.2c-3.3,0-6,0.9-7.8,2.8c-1.9,1.9-3.1,4.6-3.7,8.2h21.8c0-1.4-0.2-2.7-0.6-4.1
		c-0.4-1.3-0.9-2.5-1.7-3.5c-0.9-1-1.9-1.9-3.2-2.6S410.9,47.2,409,47.2z"/>
</g>
<g>
	<g>
		<path d="M18.5,150l45.1-23.6v11.9c0,0.8-0.2,1.7-0.7,2.3s-1.1,1.3-2.1,1.9L45,151c-0.9,0.6-2,0.9-3.1,1.3
			c-1.1,0.4-2.2,0.7-3.4,0.9c1.2,0.3,2.3,0.6,3.4,0.9c1.1,0.3,2.1,0.7,3.1,1.2l15.8,8.6c0.9,0.6,1.7,1.1,2.1,1.9s0.7,1.5,0.7,2.3
			V180l-45.1-23.4V150z"/>
		<path d="M90.9,190.2c-0.4,1-0.9,1.9-1.6,2.7c-0.7,0.7-1.4,1.4-2.1,2s-1.7,0.9-2.6,1.1c-0.9,0.3-1.8,0.4-2.7,0.4h-7.4l31.6-83
			c0.7-1.9,1.9-3.4,3.4-4.4s3.3-1.5,5.3-1.5h7.4L90.9,190.2z"/>
		<path d="M161.5,146.9c-0.6,0.7-1,1.1-1.5,1.5s-1.1,0.6-2.1,0.6c-0.8,0-1.6-0.2-2.3-0.7c-0.7-0.4-1.5-0.8-2.3-1.4
			c-0.8-0.5-1.9-0.9-3-1.4s-2.6-0.7-4.3-0.7c-2.1,0-3.9,0.4-5.5,1.1c-1.5,0.7-2.8,1.9-3.8,3.4s-1.8,3.2-2.2,5.3
			c-0.5,2.1-0.7,4.5-0.7,7.1c0,5.5,1,9.8,3.2,12.8c2.1,3,5,4.5,8.9,4.5c2,0,3.6-0.3,4.8-0.7c1.1-0.5,2.1-1,3-1.7
			c0.8-0.7,1.6-1.2,2.2-1.7c0.7-0.6,1.6-0.7,2.6-0.7c1.4,0,2.4,0.5,3.1,1.5l5,6.2c-1.8,2.1-3.6,3.7-5.6,4.9s-4,2.2-6.1,3
			c-2.1,0.7-4.1,1.2-6.2,1.5c-2.1,0.3-4.1,0.4-6.1,0.4c-3.5,0-6.9-0.7-10.1-2c-3.2-1.3-6.1-3.3-8.5-5.8s-4.4-5.7-5.8-9.4
			s-2.1-7.9-2.1-12.7c0-4.2,0.7-8,1.9-11.7c1.2-3.6,3.1-6.7,5.5-9.4c2.4-2.6,5.4-4.8,9-6.2c3.5-1.5,7.7-2.2,12.4-2.2
			c4.6,0,8.5,0.7,11.9,2.1c3.5,1.5,6.5,3.5,9.2,6.3L161.5,146.9z"/>
		<path d="M199.7,132.3c4.4,0,8.4,0.7,11.9,2.1c3.5,1.4,6.7,3.4,9.2,5.9s4.6,5.7,6.1,9.3s2.1,7.7,2.1,12.3s-0.7,8.8-2.1,12.4
			c-1.4,3.7-3.5,6.8-6.1,9.4c-2.6,2.6-5.7,4.6-9.2,6c-3.6,1.4-7.6,2.1-11.9,2.1c-4.4,0-8.5-0.7-12-2.1c-3.5-1.3-6.7-3.4-9.3-6
			s-4.7-5.7-6.1-9.4c-1.4-3.7-2.1-7.8-2.1-12.4c0-4.6,0.7-8.7,2.1-12.3s3.5-6.7,6.1-9.3s5.7-4.6,9.3-5.9
			C191.3,133,195.3,132.3,199.7,132.3z M199.7,179c4,0,6.9-1.4,8.8-4.2s2.8-7.1,2.8-12.8s-0.9-10-2.8-12.8c-1.9-2.8-4.8-4.2-8.8-4.2
			c-4.1,0-7.1,1.4-9,4.2s-2.8,7-2.8,12.8s0.9,10,2.8,12.8S195.6,179,199.7,179z"/>
		<path d="M279,190.9c-1.1,0-2-0.3-2.7-0.7c-0.7-0.5-1.2-1.2-1.5-2.1l-1.3-4.4c-1.1,1.2-2.3,2.3-3.6,3.4c-1.3,1-2.6,1.9-4.1,2.6
			c-1.5,0.7-3.1,1.3-4.8,1.7c-1.7,0.4-3.5,0.6-5.5,0.6c-3,0-5.8-0.7-8.4-2c-2.6-1.3-4.8-3.3-6.6-5.8c-1.9-2.5-3.3-5.6-4.4-9.2
			c-1-3.6-1.6-7.8-1.6-12.5c0-4.3,0.6-8.3,1.8-12s2.9-6.9,5-9.6c2.1-2.7,4.8-4.8,7.8-6.3c3.1-1.5,6.4-2.2,10.1-2.2
			c3,0,5.5,0.5,7.6,1.3s3.9,2.1,5.6,3.5V108h17.3v83.4H279V190.9z M261.6,178.6c1.3,0,2.4-0.1,3.5-0.4c1-0.3,2-0.6,2.8-1
			c0.8-0.5,1.7-1,2.4-1.7s1.5-1.5,2.2-2.3v-24.5c-1.3-1.5-2.8-2.4-4.3-3s-3.1-0.8-4.8-0.8c-1.6,0-3.1,0.3-4.4,0.9
			c-1.3,0.7-2.5,1.7-3.5,3c-1,1.4-1.8,3.2-2.3,5.4c-0.6,2.2-0.8,4.9-0.8,8.1c0,3.1,0.2,5.6,0.7,7.6c0.5,2.1,1,3.7,1.9,5
			s1.8,2.2,2.9,2.8C259,178.3,260.2,178.6,261.6,178.6z"/>
		<path d="M327.8,132.3c3.8,0,7.4,0.6,10.4,1.8c3.1,1.2,5.9,2.9,8.2,5.2c2.3,2.2,4.1,5,5.3,8.3c1.3,3.3,2,7,2,11.2
			c0,1.3-0.1,2.3-0.2,3.2c-0.1,0.8-0.3,1.5-0.7,2c-0.3,0.5-0.7,0.8-1.2,1s-1.1,0.3-2,0.3h-33.3c0.6,4.8,2.1,8.3,4.4,10.4
			c2.3,2.1,5.4,3.3,9.2,3.3c2,0,3.7-0.3,5.1-0.7c1.4-0.5,2.7-1,3.8-1.6c1.1-0.6,2.1-1.1,3.1-1.6c0.9-0.5,2-0.7,3-0.7
			c1.4,0,2.4,0.5,3.1,1.5l5,6.2c-1.8,2.1-3.7,3.7-5.8,4.9c-2.1,1.2-4.2,2.2-6.3,3s-4.4,1.2-6.5,1.5s-4.2,0.4-6.2,0.4
			c-4,0-7.8-0.7-11.4-2c-3.5-1.3-6.6-3.3-9.3-5.9c-2.7-2.6-4.8-5.8-6.3-9.7c-1.5-3.8-2.3-8.4-2.3-13.4c0-3.8,0.7-7.6,2-11
			c1.3-3.5,3.2-6.4,5.7-9s5.5-4.7,9-6.2C319.5,133.1,323.4,132.3,327.8,132.3z M328.2,144.2c-3.3,0-5.9,0.9-7.7,2.8
			c-1.9,1.9-3.1,4.6-3.6,8.1h21.5c0-1.4-0.2-2.7-0.6-4s-0.9-2.4-1.8-3.5c-0.8-1-1.9-1.9-3.2-2.5S330,144.2,328.2,144.2z"/>
		<path d="M414.4,156.8l-45.1,23.5v-11.9c0-0.8,0.2-1.7,0.7-2.3s1.1-1.3,2.1-1.9l15.9-8.6c0.9-0.6,2-0.9,3-1.2s2.2-0.7,3.5-0.9
			c-1.2-0.3-2.3-0.7-3.5-0.9c-1.1-0.4-2.1-0.8-3-1.3l-15.9-8.5c-0.9-0.6-1.7-1.1-2.1-1.9s-0.7-1.5-0.7-2.3v-12l45.1,23.6V156.8
			L414.4,156.8z"/>
	</g>
	<g>
		<path d="M408.4,188.8c0-0.3,0.1-0.7,0.2-0.8c0.1-0.2,0.3-0.6,0.5-0.7c0.2-0.2,0.5-0.4,0.7-0.5s0.6-0.2,0.9-0.2
			c0.4,0,0.7,0.1,0.9,0.2c0.3,0.1,0.6,0.3,0.7,0.5c0.2,0.2,0.4,0.5,0.5,0.7c0.1,0.3,0.2,0.6,0.2,0.8c0,0.3-0.1,0.7-0.2,0.9
			c-0.1,0.3-0.3,0.6-0.5,0.7s-0.5,0.4-0.7,0.5c-0.3,0.1-0.6,0.2-0.9,0.2c-0.4,0-0.7-0.1-0.9-0.2s-0.6-0.3-0.7-0.5
			c-0.2-0.2-0.4-0.5-0.5-0.7S408.4,189.1,408.4,188.8z"/>
		<path d="M420.1,173.5c0,0.4-0.1,0.7-0.2,0.9c-0.1,0.3-0.3,0.6-0.6,0.7c-0.2,0.2-0.5,0.4-0.8,0.6c-0.3,0.1-0.7,0.2-0.9,0.2
			c-0.4,0-0.7-0.1-0.9-0.2c-0.3-0.1-0.6-0.3-0.7-0.6c-0.2-0.3-0.4-0.5-0.6-0.7c-0.2-0.3-0.2-0.6-0.2-0.9c0-0.4,0.1-0.7,0.2-0.9
			c0.1-0.3,0.3-0.6,0.6-0.7c0.2-0.2,0.5-0.4,0.7-0.6c0.3-0.2,0.6-0.2,0.9-0.2s0.7,0.1,0.9,0.2c0.3,0.1,0.6,0.3,0.8,0.6
			c0.2,0.2,0.4,0.5,0.6,0.7S420.1,173.1,420.1,173.5z M419.7,177.2v13.7h-4.1v-13.7H419.7z"/>
		<path d="M432.6,190.9c-0.3,0-0.5-0.1-0.7-0.2c-0.2-0.1-0.3-0.3-0.4-0.6l-0.3-1c-0.3,0.3-0.6,0.6-0.8,0.8c-0.3,0.3-0.7,0.5-0.9,0.7
			c-0.4,0.2-0.7,0.3-1.1,0.4c-0.4,0.1-0.8,0.1-1.3,0.1c-0.7,0-1.4-0.2-2-0.5s-1.1-0.7-1.6-1.4c-0.5-0.6-0.8-1.3-1-2.2
			c-0.3-0.8-0.4-1.9-0.4-3c0-1,0.1-2,0.5-2.9c0.3-0.8,0.7-1.7,1.2-2.2c0.6-0.6,1.1-1.1,1.9-1.5c0.7-0.4,1.5-0.6,2.4-0.6
			c0.7,0,1.3,0.1,1.8,0.3s0.9,0.5,1.3,0.8v-7h4.1v19.9L432.6,190.9L432.6,190.9z M428.5,188c0.3,0,0.6,0,0.8-0.1
			c0.3-0.1,0.5-0.1,0.7-0.3s0.4-0.3,0.6-0.4c0.2-0.2,0.4-0.4,0.6-0.6v-5.8c-0.3-0.4-0.7-0.6-1-0.7c-0.4-0.1-0.7-0.2-1.1-0.2
			s-0.7,0.1-1,0.2c-0.3,0.2-0.6,0.4-0.8,0.7c-0.2,0.4-0.5,0.7-0.6,1.3s-0.2,1.2-0.2,2s0.1,1.3,0.2,1.9c0.1,0.5,0.3,0.9,0.5,1.2
			s0.5,0.6,0.7,0.7C427.9,187.9,428.2,188,428.5,188z"/>
	</g>
</g>
</svg>
